<svg width="120" height="120" viewBox="0 0 120 120" fill="none" xmlns="http://www.w3.org/2000/svg">
<rect width="120" height="120" fill="white"/>
<g filter="url(#filter0_d_1_6)">
<path d="M63.1898 95.5563C61.6644 96.9422 59.3356 96.9422 57.8102 95.5563L54.4825 92.533C33.11 73.1913 19 60.3935 19 44.7793C19 31.9815 29.043 22 41.825 22C47.4392 22 52.8777 24.0279 57.146 27.4023C59.0661 28.9203 61.9339 28.9203 63.854 27.4023C68.1223 24.0279 73.5608 22 79.175 22C91.957 22 102 31.9815 102 44.7793C102 60.3935 87.89 73.1913 66.5175 92.533L63.1898 95.5563Z" fill="url(#paint0_linear_1_6)"/>
</g>
<defs>
<filter id="filter0_d_1_6" x="11" y="14" width="99" height="90.5957" filterUnits="userSpaceOnUse" color-interpolation-filters="sRGB">
<feFlood flood-opacity="0" result="BackgroundImageFix"/>
<feColorMatrix in="SourceAlpha" type="matrix" values="0 0 0 0 0 0 0 0 0 0 0 0 0 0 0 0 0 0 127 0" result="hardAlpha"/>
<feOffset/>
<feGaussianBlur stdDeviation="4"/>
<feComposite in2="hardAlpha" operator="out"/>
<feColorMatrix type="matrix" values="0 0 0 0 0.937255 0 0 0 0 0.219608 0 0 0 0 0.458824 0 0 0 0.5 0"/>
<feBlend mode="normal" in2="BackgroundImageFix" result="effect1_dropShadow_1_6"/>
<feBlend mode="normal" in="SourceGraphic" in2="effect1_dropShadow_1_6" result="shape"/>
</filter>
<linearGradient id="paint0_linear_1_6" x1="19" y1="98.2071" x2="101.847" y2="21.8345" gradientUnits="userSpaceOnUse">
<stop stop-color="#EF0487"/>
<stop offset="1" stop-color="#EF5D68"/>
</linearGradient>
</defs>
</svg>
