<svg width="1024" height="512" viewBox="0 0 1024 512" fill="none" xmlns="http://www.w3.org/2000/svg">
<rect width="1024" height="512" fill="#F67C01"/>
<g filter="url(#filter0_d_312_2)">
<path d="M283.16 258.416V248.752L342.68 218.672V236.08L303.192 254.704V252.656L342.68 269.872V287.728L283.16 258.416ZM366.667 302V198H386.187V225.84L385.163 240.496L384.523 238.704C386.102 237.339 388.128 235.973 390.603 234.608C393.12 233.243 395.872 232.091 398.859 231.152C401.846 230.213 404.918 229.723 408.075 229.68C415.84 229.467 421.515 231.621 425.099 236.144C428.726 240.667 430.539 247.877 430.539 257.776V302H410.891V260.016C410.891 254.384 410.08 250.501 408.459 248.368C406.838 246.235 404.022 245.232 400.011 245.36C398.219 245.403 396.022 245.829 393.419 246.64C390.816 247.451 388.406 248.795 386.187 250.672V302H366.667ZM471.302 303.024C466.95 303.024 463.345 302.32 460.486 300.912C457.67 299.461 455.558 297.179 454.15 294.064C452.785 290.949 452.102 286.832 452.102 281.712V244.08H443.462V233.648C446.619 232.752 449.137 231.899 451.014 231.088C452.934 230.277 454.321 228.869 455.174 226.864C455.601 225.883 456.049 224.731 456.518 223.408C457.03 222.085 457.563 220.656 458.118 219.12C458.673 217.584 459.249 216.027 459.846 214.448H471.622V230.704H490.758V244.08H471.622V273.456C471.622 277.979 471.857 281.285 472.326 283.376C472.795 285.424 473.606 286.747 474.758 287.344C475.91 287.899 477.574 288.176 479.75 288.176C480.859 288.176 482.139 288.048 483.59 287.792C485.041 287.493 486.427 287.131 487.75 286.704C489.073 286.277 490.097 285.829 490.822 285.36L493.382 296.304C492.23 297.328 490.502 298.373 488.198 299.44C485.894 300.464 483.27 301.317 480.326 302C477.382 302.683 474.374 303.024 471.302 303.024ZM506.609 302V230.768H524.337L524.657 238.384C526.321 237.104 528.412 235.803 530.929 234.48C533.489 233.157 536.262 232.048 539.249 231.152C542.236 230.213 545.286 229.723 548.401 229.68C553.308 229.552 557.34 230.341 560.497 232.048C563.654 233.755 566.001 236.656 567.537 240.752C569.073 244.805 569.841 250.267 569.841 257.136V302H550.385V260.016C550.385 256.347 550.086 253.445 549.489 251.312C548.892 249.136 547.825 247.579 546.289 246.64C544.796 245.701 542.662 245.275 539.889 245.36C538.012 245.36 535.772 245.808 533.169 246.704C530.566 247.6 528.198 248.923 526.065 250.672V302H506.609ZM569.009 250.992L565.425 238.896C566.79 237.701 568.732 236.4 571.249 234.992C573.809 233.541 576.753 232.304 580.081 231.28C583.409 230.213 586.929 229.68 590.641 229.68C595.548 229.637 599.665 230.448 602.993 232.112C606.321 233.776 608.838 236.635 610.545 240.688C612.252 244.741 613.105 250.245 613.105 257.2V302H593.521V259.952C593.521 256.283 593.222 253.381 592.625 251.248C592.07 249.072 591.025 247.536 589.489 246.64C587.996 245.701 585.841 245.275 583.025 245.36C580.593 245.36 578.076 245.957 575.473 247.152C572.913 248.304 570.758 249.584 569.009 250.992ZM632.106 302V198H651.69V302H632.106ZM734.78 258.416L675.26 287.728V269.872L714.748 252.656V254.704L675.26 236.08V218.672L734.78 248.752V258.416Z" fill="white"/>
</g>
<defs>
<filter id="filter0_d_312_2" x="283.16" y="198" width="463.62" height="117.024" filterUnits="userSpaceOnUse" color-interpolation-filters="sRGB">
<feFlood flood-opacity="0" result="BackgroundImageFix"/>
<feColorMatrix in="SourceAlpha" type="matrix" values="0 0 0 0 0 0 0 0 0 0 0 0 0 0 0 0 0 0 127 0" result="hardAlpha"/>
<feOffset dx="12" dy="12"/>
<feComposite in2="hardAlpha" operator="out"/>
<feColorMatrix type="matrix" values="0 0 0 0 0 0 0 0 0 0 0 0 0 0 0 0 0 0 0.25 0"/>
<feBlend mode="normal" in2="BackgroundImageFix" result="effect1_dropShadow_312_2"/>
<feBlend mode="normal" in="SourceGraphic" in2="effect1_dropShadow_312_2" result="shape"/>
</filter>
</defs>
</svg>
